<svg xmlns="http://www.w3.org/2000/svg" width="1024" height="512" viewBox="0 0 1024 512">
  <rect width="1024" height="512" fill="black"/>
  <g fill="white" opacity="0.78">
    <path d="M-40 116 C80 62 180 120 292 82 C406 42 520 96 646 70 C792 40 900 82 1080 52 L1080 112 C914 150 776 116 644 144 C498 174 398 118 276 164 C142 214 38 154 -40 196Z"/>
    <path d="M38 278 C162 232 248 300 378 262 C520 222 606 278 742 246 C846 222 936 250 1068 218 L1068 282 C938 322 836 286 738 318 C616 356 494 296 378 336 C244 382 132 320 38 366Z"/>
    <path d="M-24 420 C92 386 210 434 344 398 C468 364 568 426 704 386 C824 350 920 402 1050 364 L1050 438 C920 470 808 424 700 456 C554 500 454 430 332 470 C194 514 80 462 -24 498Z"/>
  </g>
  <g fill="white" opacity="0.44">
    <ellipse cx="256" cy="226" rx="92" ry="24"/>
    <ellipse cx="618" cy="174" rx="126" ry="28"/>
    <ellipse cx="842" cy="332" rx="116" ry="30"/>
  </g>
</svg>
