<svg xmlns="http://www.w3.org/2000/svg" width="1024" height="512" viewBox="0 0 1024 512">
  <rect width="1024" height="512" fill="#1263b1"/>
  <path fill="#2e8f50" d="M100 140 C150 70 245 94 270 160 C304 238 222 282 150 250 C92 224 66 184 100 140Z"/>
  <path fill="#3ca464" d="M392 94 C470 56 560 90 584 166 C624 290 504 312 442 258 C388 212 336 126 392 94Z"/>
  <path fill="#267846" d="M620 316 C706 254 842 290 876 374 C910 454 802 484 700 444 C632 418 572 352 620 316Z"/>
  <path fill="#c8d7b4" opacity="0.55" d="M48 46 C170 20 242 42 360 34 C492 22 618 46 748 30 C846 18 932 24 1024 52 L1024 0 L48 0Z"/>
  <path fill="#f7fafc" opacity="0.34" d="M-20 238 C120 198 244 252 382 224 S642 180 814 230 S1010 226 1070 190 V244 C950 288 826 278 704 250 S474 260 330 286 S88 280 -20 320Z"/>
</svg>
